<?xml version="1.0" encoding="UTF-8"?>
<svg id="Layer_1" data-name="Layer 1" xmlns="http://www.w3.org/2000/svg" version="1.1" viewBox="0 0 617.6 136.6">
  <defs>
    <style>
      .cls-1 {
        fill: #a1b7c7;
      }

      .cls-1, .cls-2, .cls-3, .cls-4, .cls-5 {
        stroke-width: 0px;
      }

      .cls-2 {
        fill: #1d1d1b;
      }

      .cls-3 {
        fill: #497592;
      }

      .cls-4 {
        fill: #fff;
      }

      .cls-5 {
        fill: #7c9aaf;
      }
    </style>
  </defs>
  <path class="cls-1" d="M68.3,0C30.6,0,0,30.6,0,68.3s30.6,68.3,68.3,68.3,68.3-30.6,68.3-68.3S106,0,68.3,0"/>
  <path class="cls-4" d="M68.3,17.8c-27.9,0-50.5,22.6-50.5,50.5s22.6,50.5,50.5,50.5,50.5-22.6,50.5-50.5-22.7-50.5-50.5-50.5"/>
  <path class="cls-2" d="M101.3,35.2c4.1,4.1,7.3,8.8,9.5,13.8,7.8,17.2,4.6,38.1-9.5,52.2s-35,17.3-52.1,9.6c-5-2.3-9.7-5.5-13.9-9.6-18.3-18.2-18.3-47.7,0-66s47.7-18.2,66,0"/>
  <path class="cls-3" d="M101.3,35.2c4.1,4.1,7.3,8.8,9.5,13.8,7.8,17.2-28.4,5.2-42.5,19.3-14.1,14.1-2,50.2-19.2,42.5-5-2.3-9.7-5.5-13.9-9.6-18.2-18.2-18.2-47.7,0-66s47.7-18.2,66,0"/>
  <path class="cls-5" d="M89.5,32.7c3.3,3.3,5.7,7,7.4,11,5.8,13.9-23.6,5.2-35.7,17.4-12.1,12.1-3.4,41.5-17.3,35.8-4.1-1.7-7.9-4.2-11.1-7.4-14.4-14.4-13.4-38.8,2.3-54.5,15.6-15.6,40-16.7,54.4-2.3"/>
  <path class="cls-1" d="M77.5,31c2.4,2.4,4.1,5.2,5.3,8.3,3.9,10.6-18.5,5.1-28.5,15-9.9,9.9-4.4,32.4-15,28.5-3.1-1.1-5.9-2.9-8.3-5.3-10.6-10.6-8.8-29.6,4.1-42.4,12.8-12.9,31.8-14.7,42.4-4.1"/>
  <path class="cls-1" d="M156.5,6.7h18.5v15.6h-18.5V6.7M157,91V29.1h17.5v61.9h-17.5Z"/>
  <path class="cls-1" d="M180.4,82.8l7.5-11.5c6.7,4.8,13.7,7.4,19.5,7.4s7.4-1.8,7.4-4.6v-.2c0-3.8-6-5.1-12.8-7.2-8.7-2.5-18.5-6.6-18.5-18.6v-.2c0-12.6,10.2-19.6,22.6-19.6s16.4,2.7,23.1,7.2l-6.7,12.1c-6.1-3.6-12.2-5.8-16.7-5.8s-6.5,1.8-6.5,4.3v.2c0,3.5,5.9,5.1,12.6,7.4,8.7,2.9,18.7,7,18.7,18.3v.2c0,13.7-10.3,20-23.7,20s-18.3-2.9-26.5-9.4"/>
  <rect class="cls-1" x="238.2" y="6.7" width="17.5" height="84.3"/>
  <path class="cls-1" d="M263.5,60.4v-.2c0-17.7,12.6-32.2,30.6-32.2s30.1,16,30.1,33.6-.1,3-.2,4.6h-43c1.7,8,7.3,12.1,15.1,12.1s10.2-1.8,15-6.3l10,8.9c-5.8,7.2-14.1,11.5-25.3,11.5-18.5,0-32.3-13.1-32.3-32M307.1,55.2c-1-7.9-5.7-13.2-13-13.2s-12,5.2-13.4,13.2h26.4Z"/>
  <path class="cls-1" d="M326.6,82.8l7.5-11.5c6.7,4.8,13.7,7.4,19.5,7.4s7.4-1.8,7.4-4.6v-.2c0-3.8-6-5.1-12.8-7.2-8.7-2.5-18.5-6.6-18.5-18.6v-.2c0-12.6,10.2-19.6,22.6-19.6s16.4,2.7,23.1,7.2l-6.7,12.1c-6.1-3.6-12.2-5.8-16.7-5.8s-6.5,1.8-6.5,4.3v.2c0,3.5,5.9,5.1,12.6,7.4,8.7,2.9,18.7,7,18.7,18.3v.2c0,13.7-10.3,20-23.7,20s-18.3-2.9-26.5-9.4"/>
  <path class="cls-1" d="M385.4,73.5v-29.4h-7.4v-15h7.4v-15.8h17.5v15.8h14.5v15h-14.5v26.4c0,4,1.7,6,5.7,6s6.1-.8,8.7-2.2v14.1c-3.7,2.2-8,3.6-13.9,3.6-10.7,0-18-4.2-18-18.5"/>
  <path class="cls-1" d="M419.9,60.4v-.2c0-17.8,14.3-32.2,33.6-32.2s33.3,14.2,33.3,32v.2c0,17.8-14.3,32.2-33.6,32.2s-33.3-14.2-33.3-32M469.5,60.4v-.2c0-9.1-6.6-17.1-16.3-17.1s-16,7.7-16,16.8v.2c0,9.1,6.6,17.1,16.3,17.1s16-7.7,16-16.8Z"/>
  <path class="cls-1" d="M493.8,29.1h17.5v8.8c4-5.2,9.2-9.9,18.1-9.9,13.3,0,21,8.8,21,23v40h-17.5v-34.5c0-8.3-3.9-12.6-10.6-12.6s-11,4.3-11,12.6v34.5h-17.5V29.1"/>
  <path class="cls-1" d="M556.9,60.4v-.2c0-17.7,12.6-32.2,30.6-32.2s30.1,16,30.1,33.6,0,3-.2,4.6h-43c1.7,8,7.3,12.1,15.1,12.1s10.2-1.8,15-6.3l10,8.9c-5.8,7.2-14.1,11.5-25.3,11.5-18.6,0-32.3-13.1-32.3-32M600.5,55.2c-1-7.9-5.7-13.2-13-13.2s-12,5.2-13.4,13.2h26.4Z"/>
  <path class="cls-3" d="M157.1,105.6h9.2c5.5,0,9.2,2.9,9.2,7.8h0c0,5.4-4.4,8.1-9.6,8.1h-5.9v8.6h-2.8v-24.5M165.9,118.9c4.1,0,6.7-2.2,6.7-5.4h0c0-3.6-2.6-5.4-6.6-5.4h-6.2v10.8h6.1Z"/>
  <polyline class="cls-3" points="187.4 105.6 190.2 105.6 190.2 116.4 204.3 116.4 204.3 105.6 207.1 105.6 207.1 130 204.3 130 204.3 119 190.2 119 190.2 130 187.4 130 187.4 105.6"/>
  <path class="cls-3" d="M230,105.4h2.6l11.1,24.6h-3l-2.9-6.5h-13.3l-2.9,6.5h-2.8l11.2-24.6M236.9,121.1l-5.6-12.5-5.6,12.5h11.2Z"/>
  <path class="cls-3" d="M255.6,105.6h10.5c3,0,5.4.9,7,2.4,1.2,1.2,1.9,2.9,1.9,4.8h0c0,4.2-2.8,6.5-6.6,7.2l7.5,10h-3.4l-7.1-9.5h-7v9.5h-2.8v-24.4M265.9,118c3.7,0,6.3-1.9,6.3-5h0c0-3.1-2.3-4.9-6.3-4.9h-7.6v9.9h7.6Z"/>
  <polyline class="cls-3" points="287.8 105.6 290.6 105.6 299.5 118.9 308.4 105.6 311.2 105.6 311.2 130 308.5 130 308.5 110.2 299.6 123.3 299.4 123.3 290.5 110.3 290.5 130 287.8 130 287.8 105.6"/>
  <path class="cls-3" d="M334.2,105.4h2.6l11.1,24.6h-3l-2.9-6.5h-13.3l-2.9,6.5h-2.8l11.2-24.6M341,121.1l-5.6-12.5-5.6,12.5h11.2Z"/>
  <path class="cls-3" d="M357.2,117.9h0c0-7,5.2-12.7,12.4-12.7s7.1,1.6,9.5,3.9l-1.9,2c-2.1-2-4.4-3.4-7.7-3.4-5.4,0-9.5,4.4-9.5,10h0c0,5.8,4.1,10.2,9.5,10.2s5.6-1.3,7.9-3.5l1.8,1.8c-2.6,2.6-5.3,4.3-9.8,4.3-7,0-12.2-5.6-12.2-12.6"/>
  <polyline class="cls-3" points="391.1 105.6 408.8 105.6 408.8 108.1 393.8 108.1 393.8 116.4 407.2 116.4 407.2 119 393.8 119 393.8 127.5 408.9 127.5 408.9 130 391.1 130 391.1 105.6"/>
  <path class="cls-3" d="M421.1,119.8v-14.2h2.8v14c0,5.3,2.8,8.3,7.5,8.3s7.4-2.7,7.4-8.1v-14.2h2.8v14c0,7.1-4.1,10.8-10.2,10.8s-10.3-3.7-10.3-10.6"/>
  <polyline class="cls-3" points="461.5 108.1 453.2 108.1 453.2 105.6 472.5 105.6 472.5 108.1 464.3 108.1 464.3 130 461.5 130 461.5 108.1"/>
  <rect class="cls-3" x="484.9" y="105.6" width="2.8" height="24.5"/>
  <path class="cls-3" d="M500.7,117.9h0c0-7,5.2-12.7,12.4-12.7s7.1,1.6,9.5,3.9l-1.9,2c-2.1-2-4.4-3.4-7.7-3.4-5.4,0-9.5,4.4-9.5,10h0c0,5.8,4.1,10.2,9.5,10.2s5.6-1.3,7.9-3.5l1.8,1.8c-2.5,2.6-5.3,4.3-9.8,4.3-7,0-12.2-5.6-12.2-12.6"/>
  <path class="cls-3" d="M543.6,105.4h2.6l11.1,24.6h-3l-2.9-6.5h-13.3l-2.9,6.5h-2.8l11.2-24.6M550.4,121.1l-5.6-12.5-5.6,12.5h11.2,0Z"/>
  <polyline class="cls-3" points="569.2 105.6 571.9 105.6 571.9 127.5 585.7 127.5 585.7 130 569.2 130 569.2 105.6"/>
  <path class="cls-3" d="M596.2,126.5l1.7-2c2.5,2.3,5,3.5,8.4,3.5s5.5-1.7,5.5-4.2h0c0-2.4-1.2-3.7-6.4-4.8-5.6-1.2-8.2-3-8.2-7.1h0c0-3.9,3.4-6.8,8-6.8s6.1,1,8.6,3l-1.6,2.1c-2.3-1.8-4.5-2.7-7.1-2.7s-5.2,1.8-5.2,3.9h0c0,2.4,1.3,3.7,6.6,4.9,5.5,1.2,8,3.2,8,6.9h0c0,4.3-3.5,7-8.3,7-3.9.2-7.1-1.1-10-3.7"/>
</svg>