<?xml version="1.0" encoding="UTF-8"?>
<svg id="Layer_1" data-name="Layer 1" xmlns="http://www.w3.org/2000/svg" version="1.1" viewBox="0 0 136.6 136.6">
  <defs>
    <style>
      .cls-1 {
        fill: #a1b7c7;
      }

      .cls-1, .cls-2, .cls-3, .cls-4 {
        stroke-width: 0px;
      }

      .cls-2 {
        fill: #497592;
      }

      .cls-3 {
        fill: #fff;
      }

      .cls-4 {
        fill: #7c9aaf;
      }
    </style>
  </defs>
  <path class="cls-3" d="M68.3,0C30.6,0,0,30.6,0,68.3s30.6,68.3,68.3,68.3,68.3-30.6,68.3-68.3S106,0,68.3,0"/>
  <path class="cls-3" d="M68.3,17.8c-27.9,0-50.5,22.6-50.5,50.5s22.6,50.5,50.5,50.5,50.5-22.6,50.5-50.5-22.7-50.5-50.5-50.5"/>
  <path class="cls-1" d="M101.3,35.2c4.1,4.1,7.3,8.8,9.5,13.8,7.8,17.2,4.6,38.1-9.5,52.2s-35,17.3-52.1,9.6c-5-2.3-9.7-5.5-13.9-9.6-18.3-18.2-18.3-47.7,0-66s47.7-18.2,66,0"/>
  <path class="cls-2" d="M101.3,35.2c4.1,4.1,7.3,8.8,9.5,13.8,7.8,17.2-28.4,5.2-42.5,19.3-14.1,14.1-2,50.2-19.2,42.5-5-2.3-9.7-5.5-13.9-9.6-18.2-18.2-18.2-47.7,0-66s47.7-18.2,66,0"/>
  <path class="cls-4" d="M89.5,32.7c3.3,3.3,5.7,7,7.4,11,5.8,13.9-23.6,5.2-35.7,17.4-12.1,12.1-3.4,41.5-17.3,35.8-4.1-1.7-7.9-4.2-11.1-7.4-14.4-14.4-13.4-38.8,2.3-54.5,15.6-15.6,40-16.7,54.4-2.3"/>
  <path class="cls-1" d="M77.5,31c2.4,2.4,4.1,5.2,5.3,8.3,3.9,10.6-18.5,5.1-28.5,15-9.9,9.9-4.4,32.4-15,28.5-3.1-1.1-5.9-2.9-8.3-5.3-10.6-10.6-8.8-29.6,4.1-42.4,12.8-12.9,31.8-14.7,42.4-4.1"/>
</svg>